STARTFONT 2.1
COMMENT Created by fdbbdf
FONT times14i
SIZE 14 78 78
FONTBOUNDINGBOX 17 16 -1 -5
STARTPROPERTIES 4
Ownership "  Copyright (c) 1984 Adobe Systems, Inc.  allchars 75orig/TI16.bits  WIDTHERR -277 -113  GUIDELINES -4 0 7 11 DONE  TOTAL BITMAP BYTES 3136  "
FONT_ASCENT 11
FONT_DESCENT 5
DEFAULT_CHAR 32
ENDPROPERTIES
CHARS 95
STARTCHAR sp
ENCODING -1 32
SWIDTH 0 0
DWIDTH 4 0
BBX 1 1 0 -1
BITMAP
0000
ENDCHAR
STARTCHAR !
ENCODING -1 33
SWIDTH 0 0
DWIDTH 6 0
BBX 5 11 1 -1
BITMAP
1800
1800
1800
3000
3000
2000
4000
4000
0000
c000
c000
ENDCHAR
STARTCHAR "
ENCODING -1 34
SWIDTH 0 0
DWIDTH 7 0
BBX 5 4 1 6
BITMAP
d800
d800
9000
0000
ENDCHAR
STARTCHAR #
ENCODING -1 35
SWIDTH 0 0
DWIDTH 12 0
BBX 10 11 1 -1
BITMAP
0880
0880
0880
3fc0
1100
1100
1100
ff80
2200
2200
2200
ENDCHAR
STARTCHAR $
ENCODING -1 36
SWIDTH 0 0
DWIDTH 10 0
BBX 8 13 1 -2
BITMAP
0400
3e00
6b00
6900
7800
3800
1c00
1e00
1600
9600
f600
7c00
2000
ENDCHAR
STARTCHAR %
ENCODING -1 37
SWIDTH 0 0
DWIDTH 14 0
BBX 12 11 1 -1
BITMAP
3cc0
6780
e480
cd00
ca00
76e0
0d90
0f10
1b10
1320
21c0
ENDCHAR
STARTCHAR &
ENCODING -1 38
SWIDTH 0 0
DWIDTH 13 0
BBX 11 11 1 -1
BITMAP
0300
0680
0c80
0d00
0e00
3de0
66c0
c380
c300
e7e0
78c0
ENDCHAR
STARTCHAR '
ENCODING -1 39
SWIDTH 0 0
DWIDTH 5 0
BBX 3 4 1 6
BITMAP
6000
6000
2000
c000
ENDCHAR
STARTCHAR (
ENCODING -1 40
SWIDTH 0 0
DWIDTH 7 0
BBX 5 14 1 -4
BITMAP
0800
1000
2000
6000
4000
c000
c000
c000
c000
c000
c000
4000
4000
2000
ENDCHAR
STARTCHAR )
ENCODING -1 41
SWIDTH 0 0
DWIDTH 7 0
BBX 5 14 1 -4
BITMAP
2000
1000
1000
1800
1800
1800
1800
1800
1000
1000
3000
2000
4000
8000
ENDCHAR
STARTCHAR *
ENCODING -1 42
SWIDTH 0 0
DWIDTH 9 0
BBX 7 8 1 3
BITMAP
0000
1000
9200
7c00
3800
7c00
9200
1000
ENDCHAR
STARTCHAR +
ENCODING -1 43
SWIDTH 0 0
DWIDTH 9 0
BBX 7 7 1 0
BITMAP
1000
1000
1000
fe00
1000
1000
1000
ENDCHAR
STARTCHAR ,
ENCODING -1 44
SWIDTH 0 0
DWIDTH 5 0
BBX 3 4 1 -2
BITMAP
6000
6000
2000
c000
ENDCHAR
STARTCHAR -
ENCODING -1 45
SWIDTH 0 0
DWIDTH 6 0
BBX 5 1 1 3
BITMAP
f800
ENDCHAR
STARTCHAR .
ENCODING -1 46
SWIDTH 0 0
DWIDTH 4 0
BBX 3 3 0 -1
BITMAP
0000
6000
6000
ENDCHAR
STARTCHAR /
ENCODING -1 47
SWIDTH 0 0
DWIDTH 6 0
BBX 4 11 1 -1
BITMAP
1000
1000
3000
2000
2000
6000
4000
4000
c000
8000
8000
ENDCHAR
STARTCHAR 0
ENCODING -1 48
SWIDTH 0 0
DWIDTH 10 0
BBX 8 11 1 -1
BITMAP
1c00
3200
6300
6300
c300
c300
c300
c600
c600
4c00
3800
ENDCHAR
STARTCHAR 1
ENCODING -1 49
SWIDTH 0 0
DWIDTH 8 0
BBX 6 11 1 -1
BITMAP
0c00
3c00
0c00
1800
1800
1800
3000
3000
3000
3000
f800
ENDCHAR
STARTCHAR 2
ENCODING -1 50
SWIDTH 0 0
DWIDTH 10 0
BBX 8 11 1 -1
BITMAP
1e00
2700
4300
0300
0300
0600
0c00
1800
3000
6200
fe00
ENDCHAR
STARTCHAR 3
ENCODING -1 51
SWIDTH 0 0
DWIDTH 9 0
BBX 7 11 1 -1
BITMAP
1c00
2600
0200
0600
1c00
0c00
0600
0600
0600
8c00
7800
ENDCHAR
STARTCHAR 4
ENCODING -1 52
SWIDTH 0 0
DWIDTH 10 0
BBX 8 11 1 -1
BITMAP
0300
0700
0e00
1600
2600
4c00
8c00
ff00
0c00
1800
1800
ENDCHAR
STARTCHAR 5
ENCODING -1 53
SWIDTH 0 0
DWIDTH 10 0
BBX 8 11 1 -1
BITMAP
0f00
1e00
1000
2000
3800
0c00
0600
0600
0600
cc00
7000
ENDCHAR
STARTCHAR 6
ENCODING -1 54
SWIDTH 0 0
DWIDTH 9 0
BBX 7 11 1 -1
BITMAP
0600
1800
3000
6000
7c00
e600
c200
c200
c600
6c00
3800
ENDCHAR
STARTCHAR 7
ENCODING -1 55
SWIDTH 0 0
DWIDTH 9 0
BBX 8 11 1 -1
BITMAP
7f00
ff00
8200
0600
0c00
1800
1800
3000
2000
6000
c000
ENDCHAR
STARTCHAR 8
ENCODING -1 56
SWIDTH 0 0
DWIDTH 9 0
BBX 7 11 1 -1
BITMAP
3c00
7600
6200
6200
7400
3c00
6e00
c600
c600
c400
7800
ENDCHAR
STARTCHAR 9
ENCODING -1 57
SWIDTH 0 0
DWIDTH 9 0
BBX 7 11 1 -1
BITMAP
3800
6c00
4600
c600
c600
c600
7c00
1c00
1800
3000
c000
ENDCHAR
STARTCHAR :
ENCODING -1 58
SWIDTH 0 0
DWIDTH 5 0
BBX 3 7 1 -1
BITMAP
6000
6000
0000
0000
0000
c000
c000
ENDCHAR
STARTCHAR ;
ENCODING -1 59
SWIDTH 0 0
DWIDTH 5 0
BBX 4 9 0 -3
BITMAP
3000
3000
0000
0000
0000
6000
6000
2000
c000
ENDCHAR
STARTCHAR <
ENCODING -1 60
SWIDTH 0 0
DWIDTH 11 0
BBX 9 9 1 -1
BITMAP
0080
0380
0e00
3800
e000
3800
0e00
0380
0080
ENDCHAR
STARTCHAR =
ENCODING -1 61
SWIDTH 0 0
DWIDTH 9 0
BBX 7 4 1 2
BITMAP
fe00
0000
0000
fe00
ENDCHAR
STARTCHAR >
ENCODING -1 62
SWIDTH 0 0
DWIDTH 11 0
BBX 9 9 1 -1
BITMAP
8000
e000
3800
0e00
0380
0e00
3800
e000
8000
ENDCHAR
STARTCHAR ?
ENCODING -1 63
SWIDTH 0 0
DWIDTH 8 0
BBX 6 11 1 -1
BITMAP
7800
cc00
cc00
0c00
1800
6000
6000
4000
0000
c000
c000
ENDCHAR
STARTCHAR @
ENCODING -1 64
SWIDTH 0 0
DWIDTH 17 0
BBX 15 14 1 -3
BITMAP
0000
07e0
0c38
3804
21d6
6336
c626
cc66
cc6c
cdfc
6768
6000
3c30
0fe0
ENDCHAR
STARTCHAR A
ENCODING -1 65
SWIDTH 0 0
DWIDTH 11 0
BBX 10 11 1 -1
BITMAP
0180
0380
0380
0580
0d80
0980
1f80
2180
2180
4180
e3c0
ENDCHAR
STARTCHAR B
ENCODING -1 66
SWIDTH 0 0
DWIDTH 12 0
BBX 11 11 1 -1
BITMAP
3f80
18c0
1860
1860
30c0
3f80
31c0
60c0
60c0
6180
ff00
ENDCHAR
STARTCHAR C
ENCODING -1 67
SWIDTH 0 0
DWIDTH 12 0
BBX 12 11 1 -1
BITMAP
07d0
1c70
7020
6020
e000
c000
c000
c000
e040
7180
1e00
ENDCHAR
STARTCHAR D
ENCODING -1 68
SWIDTH 0 0
DWIDTH 13 0
BBX 12 11 1 -1
BITMAP
3fc0
1860
1830
1830
3030
3030
3030
6060
60c0
6380
fe00
ENDCHAR
STARTCHAR E
ENCODING -1 69
SWIDTH 0 0
DWIDTH 12 0
BBX 11 11 1 -1
BITMAP
3fe0
1820
1820
1800
3080
3f00
3100
6000
6020
60c0
ff80
ENDCHAR
STARTCHAR F
ENCODING -1 70
SWIDTH 0 0
DWIDTH 11 0
BBX 11 11 1 -1
BITMAP
3fe0
1820
1820
1800
3080
3f00
3100
6000
6000
6000
f800
ENDCHAR
STARTCHAR G
ENCODING -1 71
SWIDTH 0 0
DWIDTH 13 0
BBX 12 11 1 -1
BITMAP
07d0
1c30
7020
6020
e000
c0f0
c060
c060
60c0
70c0
1fc0
ENDCHAR
STARTCHAR H
ENCODING -1 72
SWIDTH 0 0
DWIDTH 13 0
BBX 13 11 1 -1
BITMAP
3c78
1830
1830
1830
3060
3fe0
3060
60c0
60c0
60c0
f1e0
ENDCHAR
STARTCHAR I
ENCODING -1 73
SWIDTH 0 0
DWIDTH 6 0
BBX 6 11 1 -1
BITMAP
3c00
1800
1800
1800
3000
3000
3000
6000
6000
6000
f000
ENDCHAR
STARTCHAR J
ENCODING -1 74
SWIDTH 0 0
DWIDTH 7 0
BBX 8 11 0 -1
BITMAP
0f00
0600
0600
0600
0c00
0c00
0c00
1800
d800
d800
7000
ENDCHAR
STARTCHAR K
ENCODING -1 75
SWIDTH 0 0
DWIDTH 12 0
BBX 12 11 1 -1
BITMAP
3ef0
1840
1880
1b00
3e00
3e00
3700
6300
6380
6180
fbe0
ENDCHAR
STARTCHAR L
ENCODING -1 76
SWIDTH 0 0
DWIDTH 10 0
BBX 9 11 1 -1
BITMAP
3e00
1800
1800
1800
3000
3000
3000
6000
6000
6080
ff00
ENDCHAR
STARTCHAR M
ENCODING -1 77
SWIDTH 0 0
DWIDTH 14 0
BBX 14 11 1 -1
BITMAP
381c
1838
1838
1870
2cf0
2cb0
2f30
4e60
4660
4460
e4f0
ENDCHAR
STARTCHAR N
ENCODING -1 78
SWIDTH 0 0
DWIDTH 12 0
BBX 12 11 1 -1
BITMAP
3870
1c20
1c20
1e20
2640
2740
2340
4380
4180
4180
e0c0
ENDCHAR
STARTCHAR O
ENCODING -1 79
SWIDTH 0 0
DWIDTH 12 0
BBX 11 11 1 -1
BITMAP
0f80
18c0
7060
6060
e060
c060
c060
c0c0
e1c0
6300
3e00
ENDCHAR
STARTCHAR P
ENCODING -1 80
SWIDTH 0 0
DWIDTH 10 0
BBX 10 11 1 -1
BITMAP
3f80
19c0
18c0
18c0
3180
3f00
3000
6000
6000
6000
f000
ENDCHAR
STARTCHAR Q
ENCODING -1 81
SWIDTH 0 0
DWIDTH 12 0
BBX 11 14 1 -4
BITMAP
0f80
38c0
7060
6060
e060
c060
c060
c0c0
6180
3f00
1800
3000
fc60
0f80
ENDCHAR
STARTCHAR R
ENCODING -1 82
SWIDTH 0 0
DWIDTH 12 0
BBX 11 11 1 -1
BITMAP
3fc0
18e0
1860
1860
38c0
3f80
3600
6300
6300
6180
f1e0
ENDCHAR
STARTCHAR S
ENCODING -1 83
SWIDTH 0 0
DWIDTH 9 0
BBX 8 11 1 -1
BITMAP
1d00
2300
6100
6000
7800
3c00
0e00
8600
8600
ce00
b800
ENDCHAR
STARTCHAR T
ENCODING -1 84
SWIDTH 0 0
DWIDTH 10 0
BBX 10 11 1 -1
BITMAP
7fc0
8c40
8c40
0c00
1800
1800
1800
3000
3000
3000
fc00
ENDCHAR
STARTCHAR U
ENCODING -1 85
SWIDTH 0 0
DWIDTH 11 0
BBX 11 11 1 -1
BITMAP
78e0
3040
3040
3080
6080
6080
6080
c100
c100
6200
3c00
ENDCHAR
STARTCHAR V
ENCODING -1 86
SWIDTH 0 0
DWIDTH 10 0
BBX 10 11 1 -1
BITMAP
f1c0
6080
6100
6100
7200
3200
3c00
3800
3800
3000
2000
ENDCHAR
STARTCHAR W
ENCODING -1 87
SWIDTH 0 0
DWIDTH 14 0
BBX 14 11 1 -1
BITMAP
f39c
6108
6318
6310
67b0
75a0
3de0
39c0
3180
3180
2100
ENDCHAR
STARTCHAR X
ENCODING -1 88
SWIDTH 0 0
DWIDTH 11 0
BBX 11 11 1 -1
BITMAP
3ce0
1840
1880
0d00
0e00
0600
0e00
1300
2300
6180
f3c0
ENDCHAR
STARTCHAR Y
ENCODING -1 89
SWIDTH 0 0
DWIDTH 9 0
BBX 9 11 1 -1
BITMAP
f380
6100
6200
3200
3400
3800
1800
1800
3000
3000
7800
ENDCHAR
STARTCHAR Z
ENCODING -1 90
SWIDTH 0 0
DWIDTH 11 0
BBX 11 11 1 -1
BITMAP
3fe0
20e0
01c0
0380
0700
0e00
1c00
3800
7040
e080
ff80
ENDCHAR
STARTCHAR [
ENCODING -1 91
SWIDTH 0 0
DWIDTH 8 0
BBX 7 14 1 -4
BITMAP
1e00
1800
1800
3000
3000
3000
3000
6000
6000
6000
6000
c000
c000
f000
ENDCHAR
STARTCHAR \
ENCODING -1 92
SWIDTH 0 0
DWIDTH 5 0
BBX 4 11 1 -1
BITMAP
8000
8000
c000
4000
4000
6000
2000
2000
3000
1000
1000
ENDCHAR
STARTCHAR ]
ENCODING -1 93
SWIDTH 0 0
DWIDTH 8 0
BBX 7 14 1 -4
BITMAP
1e00
0600
0600
0c00
0c00
0c00
0c00
1800
1800
1800
1800
3000
3000
f000
ENDCHAR
STARTCHAR ^
ENCODING -1 94
SWIDTH 0 0
DWIDTH 7 0
BBX 6 7 1 3
BITMAP
1000
1000
3000
2800
4800
c400
8400
ENDCHAR
STARTCHAR _
ENCODING -1 95
SWIDTH 0 0
DWIDTH 8 0
BBX 9 3 1 -4
BITMAP
0000
0000
ff80
ENDCHAR
STARTCHAR `
ENCODING -1 96
SWIDTH 0 0
DWIDTH 5 0
BBX 3 5 1 6
BITMAP
0000
6000
8000
c000
c000
ENDCHAR
STARTCHAR a
ENCODING -1 97
SWIDTH 0 0
DWIDTH 9 0
BBX 8 8 1 -1
BITMAP
1f00
3300
6300
6300
c600
c600
de00
7700
ENDCHAR
STARTCHAR b
ENCODING -1 98
SWIDTH 0 0
DWIDTH 9 0
BBX 8 11 1 -1
BITMAP
3800
1800
3000
3e00
3300
7300
6300
6700
c600
cc00
7800
ENDCHAR
STARTCHAR c
ENCODING -1 99
SWIDTH 0 0
DWIDTH 8 0
BBX 7 8 1 -1
BITMAP
1e00
3200
6000
6000
c000
c400
ec00
7000
ENDCHAR
STARTCHAR d
ENCODING -1 100
SWIDTH 0 0
DWIDTH 10 0
BBX 9 11 1 -1
BITMAP
0380
0180
0180
1f00
3300
6300
6300
c600
c600
de00
7700
ENDCHAR
STARTCHAR e
ENCODING -1 101
SWIDTH 0 0
DWIDTH 7 0
BBX 6 8 1 -1
BITMAP
3800
6400
c400
cc00
f000
c000
c800
7000
ENDCHAR
STARTCHAR f
ENCODING -1 102
SWIDTH 0 0
DWIDTH 6 0
BBX 9 15 -1 -4
BITMAP
0700
0d80
0c00
0c00
3f00
0c00
1800
1800
1800
1800
3000
3000
3000
a000
c000
ENDCHAR
STARTCHAR g
ENCODING -1 103
SWIDTH 0 0
DWIDTH 9 0
BBX 8 12 1 -5
BITMAP
1f00
3200
6300
6300
6600
3c00
2000
7e00
c700
c300
c600
7c00
ENDCHAR
STARTCHAR h
ENCODING -1 104
SWIDTH 0 0
DWIDTH 9 0
BBX 8 11 1 -1
BITMAP
3800
1800
3000
3e00
3300
3300
6300
6600
6600
c600
c700
ENDCHAR
STARTCHAR i
ENCODING -1 105
SWIDTH 0 0
DWIDTH 5 0
BBX 4 12 1 -1
BITMAP
0000
3000
3000
0000
e000
6000
6000
6000
c000
c000
e000
c000
ENDCHAR
STARTCHAR j
ENCODING -1 106
SWIDTH 0 0
DWIDTH 6 0
BBX 6 15 0 -4
BITMAP
0000
0c00
0c00
0000
3800
1800
1800
1800
3800
3000
3000
3000
2000
e000
c000
ENDCHAR
STARTCHAR k
ENCODING -1 107
SWIDTH 0 0
DWIDTH 9 0
BBX 8 11 1 -1
BITMAP
3800
1800
3000
3300
3600
6c00
7800
7800
e800
cc00
c600
ENDCHAR
STARTCHAR l
ENCODING -1 108
SWIDTH 0 0
DWIDTH 5 0
BBX 4 11 1 -1
BITMAP
7000
3000
3000
6000
6000
6000
6000
c000
c000
c000
e000
ENDCHAR
STARTCHAR m
ENCODING -1 109
SWIDTH 0 0
DWIDTH 12 0
BBX 11 8 1 -1
BITMAP
ecc0
7fe0
6660
6660
ccc0
ccc0
ccc0
cce0
ENDCHAR
STARTCHAR n
ENCODING -1 110
SWIDTH 0 0
DWIDTH 8 0
BBX 7 8 1 -1
BITMAP
ec00
7600
6600
6600
cc00
cc00
cc00
ce00
ENDCHAR
STARTCHAR o
ENCODING -1 111
SWIDTH 0 0
DWIDTH 8 0
BBX 7 8 1 -1
BITMAP
3c00
6600
6200
c200
c600
c400
cc00
7800
ENDCHAR
STARTCHAR p
ENCODING -1 112
SWIDTH 0 0
DWIDTH 9 0
BBX 9 11 0 -4
BITMAP
1b00
1d80
1980
3180
3180
3300
3300
7c00
6000
6000
f000
ENDCHAR
STARTCHAR q
ENCODING -1 113
SWIDTH 0 0
DWIDTH 9 0
BBX 8 11 1 -4
BITMAP
0f00
3300
6300
6600
c600
c600
cc00
7c00
0c00
1800
1c00
ENDCHAR
STARTCHAR r
ENCODING -1 114
SWIDTH 0 0
DWIDTH 6 0
BBX 6 8 1 -1
BITMAP
dc00
6c00
6000
6000
c000
c000
c000
c000
ENDCHAR
STARTCHAR s
ENCODING -1 115
SWIDTH 0 0
DWIDTH 7 0
BBX 6 8 1 -1
BITMAP
3c00
6400
6000
3000
1800
1800
9800
f000
ENDCHAR
STARTCHAR t
ENCODING -1 116
SWIDTH 0 0
DWIDTH 5 0
BBX 4 10 1 -1
BITMAP
2000
6000
f000
6000
6000
c000
c000
c000
c000
6000
ENDCHAR
STARTCHAR u
ENCODING -1 117
SWIDTH 0 0
DWIDTH 8 0
BBX 7 8 1 -1
BITMAP
e600
6600
6600
cc00
cc00
cc00
dc00
6e00
ENDCHAR
STARTCHAR v
ENCODING -1 118
SWIDTH 0 0
DWIDTH 8 0
BBX 7 8 1 -1
BITMAP
e600
6200
6600
3400
3400
3800
3000
2000
ENDCHAR
STARTCHAR w
ENCODING -1 119
SWIDTH 0 0
DWIDTH 12 0
BBX 11 8 1 -1
BITMAP
e460
6640
66c0
6e80
2a80
3300
3300
2200
ENDCHAR
STARTCHAR x
ENCODING -1 120
SWIDTH 0 0
DWIDTH 9 0
BBX 8 8 1 -1
BITMAP
6300
2600
3c00
1800
3800
2800
6c00
c600
ENDCHAR
STARTCHAR y
ENCODING -1 121
SWIDTH 0 0
DWIDTH 9 0
BBX 8 11 1 -4
BITMAP
e300
6100
3300
3200
3600
1c00
1800
1000
3000
e000
c000
ENDCHAR
STARTCHAR z
ENCODING -1 122
SWIDTH 0 0
DWIDTH 7 0
BBX 6 8 1 -1
BITMAP
7c00
8c00
1800
3000
3000
6000
c400
f800
ENDCHAR
STARTCHAR {
ENCODING -1 123
SWIDTH 0 0
DWIDTH 7 0
BBX 6 15 1 -5
BITMAP
0c00
1000
3000
3000
3000
3000
6000
e000
6000
6000
c000
c000
c000
4000
3000
ENDCHAR
STARTCHAR |
ENCODING -1 124
SWIDTH 0 0
DWIDTH 6 0
BBX 5 14 1 -4
BITMAP
0800
0800
1800
1000
1000
3000
2000
2000
6000
4000
4000
c000
8000
8000
ENDCHAR
STARTCHAR }
ENCODING -1 125
SWIDTH 0 0
DWIDTH 7 0
BBX 6 15 1 -5
BITMAP
1000
0800
0c00
0c00
0c00
1800
1800
1c00
1800
3000
3000
3000
3000
2000
c000
ENDCHAR
STARTCHAR ~
ENCODING -1 126
SWIDTH 0 0
DWIDTH 9 0
BBX 8 5 1 2
BITMAP
0000
0000
0000
7b00
de00
ENDCHAR
ENDFONT
